{
	"asset":{
		"generator":"Khronos glTF Blender I/O v3.6.27",
		"version":"2.0"
	},
	"extensionsUsed":[
		"KHR_materials_specular",
		"KHR_materials_ior"
	],
	"scene":0,
	"scenes":[
		{
			"name":"Scene",
			"nodes":[
				0
			]
		}
	],
	"nodes":[
		{
			"mesh":0,
			"name":"Ethene.mol",
			"rotation":[
				0.7071068286895752,
				0,
				0,
				0.7071068286895752
			]
		}
	],
	"materials":[
		{
			"doubleSided":true,
			"extensions":{
				"KHR_materials_specular":{
					"specularColorFactor":[
						0.020080160244135427,
						0.020080160244135427,
						0.020080160244135427
					]
				},
				"KHR_materials_ior":{
					"ior":0.0010000000474974513
				}
			},
			"name":"k000000",
			"pbrMetallicRoughness":{
				"baseColorFactor":[
					0,
					0,
					0,
					1
				],
				"metallicFactor":0,
				"roughnessFactor":0.5962674021720886
			}
		},
		{
			"doubleSided":true,
			"extensions":{
				"KHR_materials_specular":{
					"specularColorFactor":[
						0.020080160244135427,
						0.020080160244135427,
						0.020080160244135427
					]
				},
				"KHR_materials_ior":{
					"ior":0.0010000000474974513
				}
			},
			"name":"kffffff",
			"pbrMetallicRoughness":{
				"metallicFactor":0,
				"roughnessFactor":0.5962674021720886
			}
		},
		{
			"doubleSided":true,
			"extensions":{
				"KHR_materials_specular":{
					"specularColorFactor":[
						0.020080160244135427,
						0.020080160244135427,
						0.020080160244135427
					]
				},
				"KHR_materials_ior":{
					"ior":0.0010000000474974513
				}
			},
			"name":"k808080",
			"pbrMetallicRoughness":{
				"baseColorFactor":[
					0.5040000081062317,
					0.5040000081062317,
					0.5040000081062317,
					1
				],
				"metallicFactor":0,
				"roughnessFactor":0.5962674021720886
			}
		}
	],
	"meshes":[
		{
			"name":"Ethene.mol",
			"primitives":[
				{
					"attributes":{
						"POSITION":0,
						"NORMAL":1
					},
					"indices":2,
					"material":0
				},
				{
					"attributes":{
						"POSITION":3,
						"NORMAL":4
					},
					"indices":5,
					"material":1
				},
				{
					"attributes":{
						"POSITION":6,
						"NORMAL":7
					},
					"indices":8,
					"material":2
				}
			]
		}
	],
	"accessors":[
		{
			"bufferView":0,
			"componentType":5126,
			"count":2074,
			"max":[
				1.0922000408172607,
				0.42500001192092896,
				0.42500001192092896
			],
			"min":[
				-1.0922000408172607,
				-0.42500001192092896,
				-0.42500001192092896
			],
			"type":"VEC3"
		},
		{
			"bufferView":1,
			"componentType":5126,
			"count":2074,
			"type":"VEC3"
		},
		{
			"bufferView":2,
			"componentType":5123,
			"count":7680,
			"type":"SCALAR"
		},
		{
			"bufferView":3,
			"componentType":5126,
			"count":4067,
			"max":[
				1.4962999820709229,
				0.3458000123500824,
				1.2039999961853027
			],
			"min":[
				-1.4962999820709229,
				-0.3458000123500824,
				-1.2039999961853027
			],
			"type":"VEC3"
		},
		{
			"bufferView":4,
			"componentType":5126,
			"count":4067,
			"type":"VEC3"
		},
		{
			"bufferView":5,
			"componentType":5123,
			"count":15360,
			"type":"SCALAR"
		},
		{
			"bufferView":6,
			"componentType":5126,
			"count":13181,
			"max":[
				1.3222999572753906,
				0.17180000245571136,
				1.0299999713897705
			],
			"min":[
				-1.3222999572753906,
				-0.17180000245571136,
				-1.0299999713897705
			],
			"type":"VEC3"
		},
		{
			"bufferView":7,
			"componentType":5126,
			"count":13181,
			"type":"VEC3"
		},
		{
			"bufferView":8,
			"componentType":5123,
			"count":47376,
			"type":"SCALAR"
		}
	],
	"bufferViews":[
		{
			"buffer":0,
			"byteLength":24888,
			"byteOffset":0,
			"target":34962
		},
		{
			"buffer":0,
			"byteLength":24888,
			"byteOffset":24888,
			"target":34962
		},
		{
			"buffer":0,
			"byteLength":15360,
			"byteOffset":49776,
			"target":34963
		},
		{
			"buffer":0,
			"byteLength":48804,
			"byteOffset":65136,
			"target":34962
		},
		{
			"buffer":0,
			"byteLength":48804,
			"byteOffset":113940,
			"target":34962
		},
		{
			"buffer":0,
			"byteLength":30720,
			"byteOffset":162744,
			"target":34963
		},
		{
			"buffer":0,
			"byteLength":158172,
			"byteOffset":193464,
			"target":34962
		},
		{
			"buffer":0,
			"byteLength":158172,
			"byteOffset":351636,
			"target":34962
		},
		{
			"buffer":0,
			"byteLength":94752,
			"byteOffset":509808,
			"target":34963
		}
	],
	"buffers":[
		{
			"byteLength":604560,
			"uri":"data:application/octet-stream;base64,"
		}
	]
}
